<svg width="492" height="96" fill="none" xmlns="http://www.w3.org/2000/svg"><path d="M477.033 9.968h-2.544V8.6h6.66v1.368h-2.532V17h-1.584V9.968zm5.031-1.368h1.836l2.544 6.204 2.544-6.204h1.824V17h-1.488v-5.568L487.044 17h-1.2l-2.292-5.568V17h-1.488V8.6zM125.548 78V22h10.64v24.4l22.48-24.4h13.2l-20.56 22.24L173.948 78h-13.12l-16.8-25.92-7.84 8.48V78h-10.64zm75.215.64c-5.387 0-10.24-1.227-14.56-3.68-4.267-2.507-7.627-5.92-10.08-10.24-2.454-4.373-3.68-9.28-3.68-14.72 0-5.44 1.226-10.32 3.68-14.64 2.453-4.373 5.813-7.787 10.08-10.24 4.32-2.507 9.173-3.76 14.56-3.76 5.333 0 10.133 1.253 14.4 3.76 4.32 2.453 7.706 5.867 10.16 10.24 2.453 4.32 3.68 9.2 3.68 14.64 0 5.44-1.227 10.347-3.68 14.72-2.454 4.32-5.84 7.733-10.16 10.24-4.267 2.453-9.067 3.68-14.4 3.68zM183.083 50c0 3.68.746 7.013 2.24 10 1.546 2.933 3.653 5.253 6.32 6.96 2.666 1.653 5.68 2.48 9.04 2.48 3.36 0 6.373-.827 9.04-2.48 2.72-1.707 4.826-4.027 6.32-6.96 1.546-2.987 2.32-6.32 2.32-10 0-3.68-.774-7.013-2.32-10-1.494-2.987-3.6-5.307-6.32-6.96-2.667-1.707-5.68-2.56-9.04-2.56-3.36 0-6.374.853-9.04 2.56-2.667 1.653-4.774 3.973-6.32 6.96-1.494 2.987-2.24 6.32-2.24 10zm54.183-28h12.24l16.96 41.36L283.426 22h12.16v56h-9.92V40.88L270.466 78h-8l-15.28-37.12V78h-9.92V22zm94.903 56.64c-5.387 0-10.24-1.227-14.56-3.68-4.267-2.507-7.627-5.92-10.08-10.24-2.454-4.373-3.68-9.28-3.68-14.72 0-5.44 1.226-10.32 3.68-14.64 2.453-4.373 5.813-7.787 10.08-10.24 4.32-2.507 9.173-3.76 14.56-3.76 5.333 0 10.133 1.253 14.4 3.76 4.32 2.453 7.706 5.867 10.16 10.24 2.453 4.32 3.68 9.2 3.68 14.64 0 5.44-1.227 10.347-3.68 14.72-2.454 4.32-5.84 7.733-10.16 10.24-4.267 2.453-9.067 3.68-14.4 3.68zM314.489 50c0 3.68.746 7.013 2.24 10 1.546 2.933 3.653 5.253 6.32 6.96 2.666 1.653 5.68 2.48 9.04 2.48 3.36 0 6.373-.827 9.04-2.48 2.72-1.707 4.826-4.027 6.32-6.96 1.546-2.987 2.32-6.32 2.32-10 0-3.68-.774-7.013-2.32-10-1.494-2.987-3.6-5.307-6.32-6.96-2.667-1.707-5.68-2.56-9.04-2.56-3.36 0-6.374.853-9.04 2.56-2.667 1.653-4.774 3.973-6.32 6.96-1.494 2.987-2.24 6.32-2.24 10zm54.184-28h18.159c5.334 0 10.161 1.067 14.481 3.2 4.373 2.08 7.84 5.227 10.4 9.44 2.56 4.213 3.84 9.333 3.84 15.36 0 6.027-1.28 11.147-3.84 15.36-2.56 4.213-6.027 7.387-10.4 9.52-4.32 2.08-9.147 3.12-14.481 3.12h-18.159V22zm17.28 46.8c5.386 0 9.866-1.52 13.44-4.56 3.626-3.04 5.44-7.787 5.44-14.24s-1.814-11.2-5.44-14.24c-3.574-3.093-8.054-4.64-13.44-4.64h-6.72V68.8h6.72zm63.716 9.84c-5.387 0-10.24-1.227-14.56-3.68-4.267-2.507-7.627-5.92-10.08-10.24-2.454-4.373-3.68-9.28-3.68-14.72 0-5.44 1.226-10.32 3.68-14.64 2.453-4.373 5.813-7.787 10.08-10.24 4.32-2.507 9.173-3.76 14.56-3.76 5.333 0 10.133 1.253 14.4 3.76 4.32 2.453 7.706 5.867 10.16 10.24 2.453 4.32 3.68 9.2 3.68 14.64 0 5.44-1.227 10.347-3.68 14.72-2.454 4.32-5.84 7.733-10.16 10.24-4.267 2.453-9.067 3.68-14.4 3.68zM431.989 50c0 3.68.746 7.013 2.24 10 1.546 2.933 3.653 5.253 6.32 6.96 2.666 1.653 5.68 2.48 9.04 2.48 3.36 0 6.373-.827 9.04-2.48 2.72-1.707 4.826-4.027 6.32-6.96 1.546-2.987 2.32-6.32 2.32-10 0-3.68-.774-7.013-2.32-10-1.494-2.987-3.6-5.307-6.32-6.96-2.667-1.707-5.68-2.56-9.04-2.56-3.36 0-6.374.853-9.04 2.56-2.667 1.653-4.774 3.973-6.32 6.96-1.494 2.987-2.24 6.32-2.24 10z" fill="#172E44"/><g clip-path="url(#a)" fill-rule="evenodd" clip-rule="evenodd" fill="#172E44"><path d="M1.91 46.24C3.226 13.986 36.19-7.153 66.05 5.102l.936.384-.015.005c-8.593-1.736-19.02 1.468-27.53 9.14-9.487 8.558-16.725 22.738-16.937 42.38A39.533 39.533 0 0 1 1.909 46.24zm40.212-28.637c5.099-4.598 10.765-7.285 16.054-8.205-14.353 8.567-22.233 25.49-18.755 42.533l.882 4.323-1.106.273A39.514 39.514 0 0 1 26.5 57.545c.085-18.907 6.973-32.144 15.62-39.943z"/><path d="M70.083 90.178c-28.59 14.985-63.378-2.992-67.696-34.98l-.135-1.004.012.011c2.792 8.31 10.78 15.739 21.68 19.271 12.155 3.939 28.054 3.117 45.171-6.52a39.534 39.534 0 0 1 .968 23.222zM25.178 69.67c-6.532-2.117-11.693-5.68-15.133-9.8 14.595 8.145 33.19 6.509 46.211-5.025l3.303-2.925.79.822a39.513 39.513 0 0 1 7.23 10.485c-16.416 9.38-31.324 10.033-42.401 6.443z"/><path d="M73.905 9.083c27.272 17.267 29.098 56.383 3.554 76.117l-.801.618.003-.015c5.8-6.574 8.24-17.207 5.849-28.412-2.666-12.495-11.328-25.853-28.233-35.858a39.533 39.533 0 0 1 19.628-12.45zm4.693 49.143c1.433 6.715.927 12.966-.921 18.005-.243-16.713-10.958-31.998-27.457-37.508l-4.185-1.397.317-1.095a39.514 39.514 0 0 1 5.465-11.505c16.331 9.527 24.35 22.111 26.781 33.5z"/></g><defs><clipPath id="a"><path fill="#fff" d="M0 0h96v96H0z"/></clipPath></defs></svg>